<svg width="30" height="24" viewBox="0 0 30 24" fill="none" xmlns="http://www.w3.org/2000/svg">
<path d="M14.6023 6.3022L5.0004 14.3309V22.9961C5.0004 23.2205 5.08819 23.4357 5.24445 23.5943C5.40072 23.753 5.61267 23.8421 5.83366 23.8421L11.6697 23.8268C11.8899 23.8257 12.1008 23.736 12.2562 23.5775C12.4116 23.419 12.4988 23.2044 12.4988 22.9808V17.9204C12.4988 17.696 12.5866 17.4809 12.7428 17.3222C12.8991 17.1636 13.111 17.0744 13.332 17.0744H16.6651C16.8861 17.0744 17.0981 17.1636 17.2543 17.3222C17.4106 17.4809 17.4984 17.696 17.4984 17.9204V22.9771C17.498 23.0884 17.5193 23.1987 17.5611 23.3017C17.6028 23.4046 17.6641 23.4982 17.7415 23.577C17.8189 23.6558 17.9109 23.7184 18.0122 23.7611C18.1134 23.8037 18.222 23.8257 18.3317 23.8257L24.1656 23.8421C24.3866 23.8421 24.5985 23.753 24.7548 23.5943C24.9111 23.4357 24.9989 23.2205 24.9989 22.9961V14.3251L15.3991 6.3022C15.2862 6.20985 15.1456 6.15949 15.0007 6.15949C14.8557 6.15949 14.7151 6.20985 14.6023 6.3022ZM29.7693 11.7592L25.4155 8.11573V0.792367C25.4155 0.624095 25.3496 0.462716 25.2324 0.34373C25.1152 0.224744 24.9563 0.157898 24.7905 0.157898H21.8741C21.7083 0.157898 21.5494 0.224744 21.4322 0.34373C21.315 0.462716 21.2491 0.624095 21.2491 0.792367V4.63143L16.5865 0.736851C16.139 0.363032 15.5775 0.158645 14.9981 0.158645C14.4186 0.158645 13.8571 0.363032 13.4096 0.736851L0.226805 11.7592C0.163522 11.8123 0.111165 11.8775 0.0727266 11.9512C0.0342879 12.0248 0.0105204 12.1054 0.00278216 12.1884C-0.0049561 12.2714 0.00348653 12.3551 0.0276277 12.4348C0.0517688 12.5144 0.0911353 12.5885 0.143478 12.6527L1.4715 14.2918C1.5237 14.3562 1.58791 14.4096 1.66044 14.4488C1.73298 14.488 1.81242 14.5123 1.89422 14.5203C1.97603 14.5283 2.05858 14.5198 2.13716 14.4954C2.21574 14.471 2.2888 14.4311 2.35216 14.3779L14.6023 4.13443C14.7151 4.04208 14.8557 3.99172 15.0007 3.99172C15.1456 3.99172 15.2862 4.04208 15.3991 4.13443L27.6497 14.3779C27.7129 14.4311 27.7859 14.471 27.8644 14.4956C27.9428 14.5201 28.0253 14.5286 28.107 14.5208C28.1888 14.5129 28.2682 14.4888 28.3407 14.4498C28.4133 14.4107 28.4775 14.3576 28.5298 14.2933L29.8579 12.6543C29.9101 12.5897 29.9493 12.5153 29.9732 12.4353C29.9971 12.3552 30.0051 12.2712 29.9969 12.188C29.9886 12.1049 29.9643 12.0242 29.9253 11.9506C29.8862 11.877 29.8332 11.8119 29.7693 11.7592Z" fill="#2EC4B6"/>
</svg>
